<svg xmlns="http://www.w3.org/2000/svg" xmlns:xlink="http://www.w3.org/1999/xlink" width="240" height="240" viewBox="0 0 240 240"><defs><linearGradient id="b" x1="0%" y1="50%" y2="50%"><stop offset="0" stop-color="#ba1ada"/><stop offset="1" stop-color="#d91a79"/></linearGradient><linearGradient id="c" x1="100%" x2="0%" y1="50%" y2="50%"><stop offset="0" stop-color="#1ed9d9"/><stop offset="1" stop-color="#1ebada"/></linearGradient><filter id="a" width="118.2%" height="118.2%" x="-9.1%" y="-9.1%"><feOffset dy="3" in="SourceAlpha" result="shadowOffsetOuter1"/><feGaussianBlur in="shadowOffsetOuter1" result="shadowBlurOuter1" stdDeviation="3"/><feColorMatrix in="shadowBlurOuter1" result="shadowMatrixOuter1" values="0 0 0 0 0 0 0 0 0 0 0 0 0 0 0 0 0 0 0.25 0"/><feMerge><feMergeNode in="shadowMatrixOuter1"/><feMergeNode in="SourceGraphic"/></feMerge></filter><filter id="e" width="106.3%" height="106.3%" x="-3.1%" y="-3.1%"><feGaussianBlur in="SourceAlpha" result="shadowBlurInner1" stdDeviation="2"/><feOffset dy="2" in="shadowBlurInner1" result="shadowOffsetInner1"/><feComposite in="shadowOffsetInner1" in2="SourceAlpha" k2="-1" k3="1" operator="arithmetic" result="shadowInnerInner1"/><feColorMatrix in="shadowInnerInner1" values="0 0 0 0 0 0 0 0 0 0 0 0 0 0 0 0 0 0 0.25 0"/></filter><path id="d" d="M120 108l-72 36V48l72 36V48h24v96h-24z"/></defs><g fill="none" fill-rule="evenodd" filter="url(#a)" transform="translate(24 24)"><path fill="url(#b)" d="M190.825 192v-.749c-1.393-.082-2.396-.246-3.01-.491s-1.035-.717-1.26-1.413-.338-1.823-.338-3.38v-30.474c0-1.556.113-2.683.338-3.38s.645-1.166 1.26-1.412 1.617-.41 3.01-.492v-1.229c-2.212.123-5.304.185-9.277.185-4.383 0-7.619-.062-9.708-.185v1.23c1.352.081 2.345.245 2.98.49.635.247 1.065.718 1.29 1.414s.338 1.823.338 3.38v30.473c0 1.557-.113 2.683-.338 3.38s-.655 1.167-1.29 1.413c-.635.245-1.628.41-2.98.491V192h-4.26c-.253-2.463-.379-5.539-.379-9.228 0-2.211.062-4.014.185-5.406h-1.414c-.614 4.137-1.935 7.454-3.962 9.953s-4.434 3.748-7.22 3.748h-3.01c-1.147 0-1.976-.103-2.488-.307-.512-.205-.87-.604-1.076-1.198s-.307-1.547-.307-2.857v-31.212c0-1.556.123-2.683.369-3.38s.706-1.166 1.382-1.412c.676-.246 1.751-.41 3.226-.492v-1.229c-2.253.123-5.468.185-9.646.185-4.383 0-7.619-.062-9.708-.185v1.23c1.352.081 2.345.245 2.98.49s1.065.718 1.29 1.414.338 1.823.338 3.38v30.473c0 1.557-.112 2.683-.338 3.38s-.655 1.167-1.29 1.413-1.628.41-2.98.491V192h-6.323c-.147-2.98-.22-7.98-.22-15.003h-1.413c-.328 3.318-.789 5.837-1.383 7.557s-1.648 3.154-3.164 4.301c-.942.983-2.1 1.73-3.471 2.243s-2.755.768-4.147.768c-4.137 0-7.25-2.007-9.34-6.022s-3.133-9.01-3.133-14.99c0-6.022 1.004-11.05 3.01-15.084s5.08-6.052 9.217-6.052c1.474 0 2.887.256 4.24.768s2.539 1.26 3.563 2.242c1.474 1.188 2.519 2.58 3.133 4.178s1.106 3.912 1.475 6.943h1.413c0-7.127.082-12.083.246-14.869h-1.414c-.245 2.458-.778 3.687-1.597 3.687-.328 0-.717-.184-1.167-.553-1.639-1.27-3.318-2.253-5.038-2.95s-3.81-1.044-6.267-1.044c-4.22 0-7.977.963-11.275 2.888-3.297 1.925-5.867 4.628-7.71 8.11s-2.765 7.475-2.765 11.98c0 4.63.901 8.613 2.703 11.951s4.332 5.888 7.588 7.65c.937.506 1.92.94 2.946 1.301H0V0h38.4v16.8H192V192zm-65.053 0h-7.236c1.448-.655 2.955-1.54 4.52-2.653.533-.328.963-.492 1.29-.492.41 0 .728.277.953.83.197.482.355 1.254.473 2.315z"/><use fill="url(#c)" xlink:href="#d"/><use fill="#000" filter="url(#e)" xlink:href="#d"/></g></svg>